<svg aria-hidden="true" style="width:0;height:0;position:absolute;overflow:hidden" xmlns="http://www.w3.org/2000/svg"><defs><symbol id="icon-film-from-header" viewBox="0 0 32 32"><path stroke-linejoin="round" stroke-linecap="round" stroke-width="2.667" d="M26.427 2.667H5.574a2.907 2.907 0 0 0-2.907 2.907v20.853a2.907 2.907 0 0 0 2.907 2.907h20.853a2.907 2.907 0 0 0 2.907-2.907V5.574a2.907 2.907 0 0 0-2.907-2.907zM9.333 2.667v26.667M22.667 2.667v26.667M2.667 16h26.667M2.667 9.333h6.667M2.667 22.667h6.667M22.667 22.667h6.667M22.667 9.333h6.667"/></symbol><symbol id="icon-lupa-for-input" viewBox="0 0 32 32"><path fill="none" stroke="#fff" style="stroke:var(--color1,#fff)" stroke-linejoin="round" stroke-linecap="round" stroke-width="2.667" d="M14.667 25.333c5.891 0 10.667-4.776 10.667-10.667S20.558 3.999 14.667 3.999 4 8.775 4 14.666s4.776 10.667 10.667 10.667zM28 28.001l-5.8-5.8"/></symbol><symbol id="icon-arrow-left" viewBox="0 0 32 32"><path stroke-linejoin="round" stroke-linecap="round" stroke-width="2.667" d="M25.333 16H6.666M16 25.334l-9.333-9.333L16 6.668"/></symbol><symbol id="icon-arrow-right" viewBox="0 0 32 32"><path stroke-linejoin="round" stroke-linecap="round" stroke-width="2.667" d="M6.667 16h18.667M16 25.334l9.333-9.333L16 6.668"/></symbol><symbol id="icon-close" viewBox="0 0 32 32"><path d="M31.708 25.708 22 16l9.708-9.708a1 1 0 0 0 0-1.414L27.122.292a1 1 0 0 0-1.414-.001L16 9.999 6.292.291a.998.998 0 0 0-1.414.001L.292 4.878a1 1 0 0 0 0 1.414L10 16 .292 25.708a.999.999 0 0 0 0 1.414l4.586 4.586a1 1 0 0 0 1.414 0L16 22l9.708 9.708a1 1 0 0 0 1.414 0l4.586-4.586a.999.999 0 0 0 0-1.414z"/></symbol><symbol id="icon-user-check" viewBox="0 0 32 32"><path d="m30 19-9 9-3-3-2 2 5 5 11-11z"/><path d="M14 24h10v-3.598c-2.101-1.225-4.885-2.066-8-2.321v-1.649c2.203-1.242 4-4.337 4-7.432 0-4.971 0-9-6-9S8 4.029 8 9c0 3.096 1.797 6.191 4 7.432v1.649c-6.784.555-12 3.888-12 7.918h14v-2z"/></symbol><symbol id="svg-UpBtn" viewBox="0 0 32 32"><path d="m27.414 12.586-10-10a2 2 0 0 0-2.828 0l-10 10a2 2 0 1 0 2.828 2.828L14 8.828V28a2 2 0 1 0 4 0V8.828l6.586 6.586c.39.39.902.586 1.414.586s1.024-.195 1.414-.586a2 2 0 0 0 0-2.828z"/></symbol><symbol id="moon" viewBox="0 0 24 24"><path stroke-linejoin="round" stroke-linecap="round" stroke-width="2" d="M21 12.79c-.438 4.601-4.283 8.172-8.962 8.172a9.001 9.001 0 0 1-.864-17.959L11.21 3a6.95 6.95 0 0 0-1.371 4.161 7 7 0 0 0 11.179 5.616l-.019.013z"/></symbol><symbol id="sun" viewBox="0 0 32 32"><path d="M7.813 3.44a1.023 1.023 0 1 1 1.768-1.03l.003.005 1.318 2.273a1.028 1.028 0 0 1-1.77 1.046l-.003-.005L7.814 3.44zm8.19 3.386A9.174 9.174 0 1 1 9.511 9.51a9.122 9.122 0 0 1 6.477-2.688h.013H16zm-.818-5.784L15.184.99a1.03 1.03 0 0 1 2.058 0l-.001.054v-.002 2.62a1.03 1.03 0 1 1-2.057.052l.001-.054v.002-2.62zm7.599 1.588a1.023 1.023 0 1 1 1.77 1.019l.002-.004-1.318 2.281a1.023 1.023 0 1 1-1.77-1.025l-.003.004 1.318-2.279zm5.776 5.183a1.024 1.024 0 0 1 1.03 1.77l-.005.003-2.279 1.318a1.028 1.028 0 0 1-1.046-1.77l.005-.003 2.294-1.318zm2.411 7.375.052-.001a1.03 1.03 0 0 1 0 2.058l-.054-.001h.003-2.633l-.052.001a1.03 1.03 0 1 1 .054-2.057h-.003zm-1.601 7.598a1.025 1.025 0 1 1-1.022 1.771l.004.002-2.281-1.318a1.025 1.025 0 0 1 .465-1.935c.203 0 .393.059.552.162l-.004-.002 2.279 1.318zm-5.18 5.774a1.024 1.024 0 0 1-1.77 1.03l-.003-.005-1.323-2.279a1.028 1.028 0 0 1 1.77-1.046l.003.005 1.318 2.281zm-7.375 2.411a1.03 1.03 0 1 1-2.057.052l.001-.054v.003-2.633l-.001-.052a1.03 1.03 0 0 1 2.058 0l-.001.054v-.003 2.633zM9.216 29.37a1.024 1.024 0 0 1-1.771-1.023l-.003.006 1.318-2.281a1.023 1.023 0 1 1 1.77 1.016l.002-.004-1.318 2.279zM3.44 24.19a1.024 1.024 0 0 1-1.03-1.77l.005-.003 2.273-1.323a1.03 1.03 0 0 1 1.047 1.777l-.005.003-2.281 1.318zm-2.398-7.375-.052.001a1.03 1.03 0 1 1 .054-2.057h-.002 2.62l.052-.001a1.03 1.03 0 0 1 0 2.058l-.054-.001h.002zM2.63 9.216a1.023 1.023 0 1 1 1.019-1.77l-.004-.002 2.281 1.318a1.023 1.023 0 1 1-1.025 1.77l.004.003-2.276-1.318z"/></symbol><symbol id="icon-telegram" viewBox="0 0 32 32"><path d="M16 0C7.162 0 0 7.162 0 16s7.162 16 16 16 16-7.163 16-16S24.837 0 16 0zm7.863 10.969-2.625 12.369c-.181.881-.712 1.087-1.45.681l-4-2.956-1.919 1.869c-.225.219-.4.4-.8.4-.519 0-.431-.194-.606-.688L11.1 18.169l-3.956-1.231c-.856-.262-.862-.85.194-1.269l15.412-5.95c.7-.319 1.381.169 1.113 1.25z"/></symbol><symbol id="icon-github" viewBox="0 0 32 32"><path d="M16 .396c-8.84 0-16 7.164-16 16 0 7.071 4.584 13.067 10.94 15.18.8.151 1.093-.344 1.093-.769 0-.38-.013-1.387-.02-2.72-4.451.965-5.389-2.147-5.389-2.147-.728-1.847-1.78-2.34-1.78-2.34-1.449-.992.112-.972.112-.972 1.607.112 2.451 1.648 2.451 1.648 1.427 2.447 3.745 1.74 4.66 1.331.144-1.035.556-1.74 1.013-2.14-3.553-.4-7.288-1.776-7.288-7.907 0-1.747.62-3.173 1.647-4.293-.18-.404-.72-2.031.14-4.235 0 0 1.34-.429 4.4 1.64 1.28-.356 2.64-.532 4-.54 1.36.008 2.72.184 4 .54 3.04-2.069 4.38-1.64 4.38-1.64.86 2.204.32 3.831.16 4.235 1.02 1.12 1.64 2.547 1.64 4.293 0 6.147-3.74 7.5-7.3 7.893.56.48 1.08 1.461 1.08 2.96 0 2.141-.02 3.861-.02 4.381 0 .42.28.92 1.1.76C27.42 29.455 32 23.455 32 16.395c0-8.836-7.164-16-16-16z"/></symbol></defs></svg>