<svg aria-hidden="true" style="position: absolute; width: 0; height: 0; overflow: hidden;" version="1.1" xmlns="http://www.w3.org/2000/svg" xmlns:xlink="http://www.w3.org/1999/xlink">
<defs>

<symbol id="icon-film-from-header" viewBox="0 0 32 32">
<path stroke-linejoin="round" stroke-linecap="round" stroke-miterlimit="4" stroke-width="2.6667" d="M26.427 2.667h-20.853c-1.605 0-2.907 1.301-2.907 2.907v20.853c0 1.605 1.301 2.907 2.907 2.907h20.853c1.605 0 2.907-1.301 2.907-2.907v-20.853c0-1.605-1.301-2.907-2.907-2.907z"></path>
<path stroke-linejoin="round" stroke-linecap="round" stroke-miterlimit="4" stroke-width="2.6667" d="M9.333 2.667v26.667"></path>
<path stroke-linejoin="round" stroke-linecap="round" stroke-miterlimit="4" stroke-width="2.6667" d="M22.667 2.667v26.667"></path>
<path stroke-linejoin="round" stroke-linecap="round" stroke-miterlimit="4" stroke-width="2.6667" d="M2.667 16h26.667"></path>
<path stroke-linejoin="round" stroke-linecap="round" stroke-miterlimit="4" stroke-width="2.6667" d="M2.667 9.333h6.667"></path>
<path stroke-linejoin="round" stroke-linecap="round" stroke-miterlimit="4" stroke-width="2.6667" d="M2.667 22.667h6.667"></path>
<path stroke-linejoin="round" stroke-linecap="round" stroke-miterlimit="4" stroke-width="2.6667" d="M22.667 22.667h6.667"></path>
<path stroke-linejoin="round" stroke-linecap="round" stroke-miterlimit="4" stroke-width="2.6667" d="M22.667 9.333h6.667"></path>
</symbol>

<symbol id="icon-lupa-for-input" viewBox="0 0 32 32">
<path fill="none" stroke="#fff" style="stroke: var(--color1, #fff)" stroke-linejoin="round" stroke-linecap="round" stroke-miterlimit="4" stroke-width="2.6667" d="M14.667 25.333c5.891 0 10.667-4.776 10.667-10.667s-4.776-10.667-10.667-10.667c-5.891 0-10.667 4.776-10.667 10.667s4.776 10.667 10.667 10.667z"></path>
<path fill="none" stroke="#fff" style="stroke: var(--color1, #fff)" stroke-linejoin="round" stroke-linecap="round" stroke-miterlimit="4" stroke-width="2.6667" d="M28 28.001l-5.8-5.8"></path>
</symbol>

<symbol id="icon-arrow-left" viewBox="0 0 32 32">
<path stroke-linejoin="round" stroke-linecap="round" stroke-miterlimit="4" stroke-width="2.6667" d="M25.333 16h-18.667"></path>
<path stroke-linejoin="round" stroke-linecap="round" stroke-miterlimit="4" stroke-width="2.6667" d="M16 25.334l-9.333-9.333 9.333-9.333"></path>
</symbol>

<symbol id="icon-arrow-right" viewBox="0 0 32 32">
<path stroke-linejoin="round" stroke-linecap="round" stroke-miterlimit="4" stroke-width="2.6667" d="M6.667 16h18.667"></path>
<path stroke-linejoin="round" stroke-linecap="round" stroke-miterlimit="4" stroke-width="2.6667" d="M16 25.334l9.333-9.333-9.333-9.333"></path>
</symbol>

<symbol id="icon-close" viewBox="0 0 32 32">
<path d="M31.708 25.708c-0-0-0-0-0-0l-9.708-9.708 9.708-9.708c0-0 0-0 0-0 0.105-0.105 0.18-0.227 0.229-0.357 0.133-0.356 0.057-0.771-0.229-1.057l-4.586-4.586c-0.286-0.286-0.702-0.361-1.057-0.229-0.13 0.048-0.252 0.124-0.357 0.228 0 0-0 0-0 0l-9.708 9.708-9.708-9.708c-0-0-0-0-0-0-0.105-0.104-0.227-0.18-0.357-0.228-0.356-0.133-0.771-0.057-1.057 0.229l-4.586 4.586c-0.286 0.286-0.361 0.702-0.229 1.057 0.049 0.13 0.124 0.252 0.229 0.357 0 0 0 0 0 0l9.708 9.708-9.708 9.708c-0 0-0 0-0 0-0.104 0.105-0.18 0.227-0.229 0.357-0.133 0.355-0.057 0.771 0.229 1.057l4.586 4.586c0.286 0.286 0.702 0.361 1.057 0.229 0.13-0.049 0.252-0.124 0.357-0.229 0-0 0-0 0-0l9.708-9.708 9.708 9.708c0 0 0 0 0 0 0.105 0.105 0.227 0.18 0.357 0.229 0.356 0.133 0.771 0.057 1.057-0.229l4.586-4.586c0.286-0.286 0.362-0.702 0.229-1.057-0.049-0.13-0.124-0.252-0.229-0.357z"></path>
</symbol>

<symbol id="icon-user-check" viewBox="0 0 32 32">
<path d="M30 19l-9 9-3-3-2 2 5 5 11-11z"></path>
<path d="M14 24h10v-3.598c-2.101-1.225-4.885-2.066-8-2.321v-1.649c2.203-1.242 4-4.337 4-7.432 0-4.971 0-9-6-9s-6 4.029-6 9c0 3.096 1.797 6.191 4 7.432v1.649c-6.784 0.555-12 3.888-12 7.918h14v-2z"></path>
</symbol>

<symbol id="svg-UpBtn" viewBox="0 0 32 32"><path d="M27.414 12.586l-10-10c-0.781-0.781-2.047-0.781-2.828 0l-10 10c-0.781 0.781-0.781 2.047 0 2.828s2.047 0.781 2.828 0l6.586-6.586v19.172c0 1.105 0.895 2 2 2s2-0.895 2-2v-19.172l6.586 6.586c0.39 0.39 0.902 0.586 1.414 0.586s1.024-0.195 1.414-0.586c0.781-0.781 0.781-2.047 0-2.828z"></path></symbol>

<symbol id="moon" viewBox="0 0 24 24">
<path stroke-linejoin="round" stroke-linecap="round" stroke-miterlimit="4" stroke-width="2" d="M21 12.79c-0.438 4.601-4.283 8.172-8.962 8.172-4.971 0-9-4.029-9-9 0-4.679 3.571-8.524 8.136-8.959l0.036-0.003c-0.856 1.148-1.371 2.594-1.371 4.161 0 3.866 3.134 7 7 7 1.567 0 3.013-0.515 4.179-1.384l-0.019 0.013z"></path>
</symbol>

<symbol id="sun" viewBox="0 0 32 32">
<path d="M7.813 3.44c-0.092-0.15-0.146-0.333-0.146-0.527 0-0.565 0.458-1.023 1.023-1.023 0.382 0 0.715 0.209 0.891 0.52l0.003 0.005 1.318 2.273c0.089 0.149 0.142 0.329 0.142 0.521 0 0.568-0.46 1.028-1.028 1.028-0.376 0-0.705-0.202-0.884-0.503l-0.003-0.005-1.315-2.289zM16.003 6.826c5.064 0.004 9.167 4.11 9.167 9.174 0 5.067-4.108 9.174-9.174 9.174s-9.174-4.108-9.174-9.174c0-2.535 1.028-4.829 2.689-6.49l0-0c1.656-1.66 3.947-2.688 6.477-2.688 0.004 0 0.009 0 0.013 0h-0.001zM15.185 1.042c-0.001-0.015-0.001-0.034-0.001-0.052 0-0.568 0.461-1.029 1.029-1.029s1.029 0.461 1.029 1.029c0 0.018-0 0.036-0.001 0.054l0-0.002v2.62c0.001 0.015 0.001 0.034 0.001 0.052 0 0.568-0.461 1.029-1.029 1.029s-1.029-0.461-1.029-1.029c0-0.018 0-0.036 0.001-0.054l-0 0.002v-2.62zM22.784 2.63c0.172-0.338 0.517-0.565 0.915-0.565 0.565 0 1.023 0.458 1.023 1.023 0 0.207-0.062 0.4-0.168 0.561l0.002-0.004-1.318 2.281c-0.177 0.321-0.513 0.535-0.899 0.535-0.565 0-1.023-0.458-1.023-1.023 0-0.197 0.056-0.381 0.152-0.537l-0.003 0.004 1.318-2.279zM28.56 7.813c0.147-0.087 0.324-0.138 0.513-0.138 0.566 0 1.024 0.459 1.024 1.024 0 0.377-0.203 0.706-0.507 0.884l-0.005 0.003-2.279 1.318c-0.149 0.089-0.329 0.142-0.521 0.142-0.568 0-1.028-0.46-1.028-1.028 0-0.376 0.202-0.705 0.503-0.884l0.005-0.003 2.294-1.318zM30.971 15.188c0.015-0.001 0.034-0.001 0.052-0.001 0.568 0 1.029 0.461 1.029 1.029s-0.461 1.029-1.029 1.029c-0.018 0-0.036-0-0.054-0.001l0.003 0h-2.633c-0.015 0.001-0.034 0.001-0.052 0.001-0.568 0-1.029-0.461-1.029-1.029s0.461-1.029 1.029-1.029c0.018 0 0.036 0 0.054 0.001l-0.003-0zM29.37 22.786c0.331 0.174 0.553 0.515 0.553 0.909 0 0.565-0.458 1.023-1.023 1.023-0.203 0-0.392-0.059-0.552-0.161l0.004 0.002-2.281-1.318c-0.334-0.173-0.558-0.516-0.558-0.912 0-0.565 0.458-1.023 1.023-1.023 0.203 0 0.393 0.059 0.552 0.162l-0.004-0.002 2.279 1.318zM24.19 28.56c0.087 0.147 0.138 0.324 0.138 0.513 0 0.566-0.459 1.024-1.024 1.024-0.377 0-0.706-0.203-0.884-0.507l-0.003-0.005-1.323-2.279c-0.089-0.149-0.142-0.329-0.142-0.521 0-0.568 0.46-1.028 1.028-1.028 0.376 0 0.705 0.202 0.884 0.503l0.003 0.005 1.318 2.281zM16.815 30.971c0.001 0.015 0.001 0.034 0.001 0.052 0 0.568-0.461 1.029-1.029 1.029s-1.029-0.461-1.029-1.029c0-0.018 0-0.036 0.001-0.054l-0 0.003v-2.633c-0.001-0.015-0.001-0.034-0.001-0.052 0-0.568 0.461-1.029 1.029-1.029s1.029 0.461 1.029 1.029c0 0.018-0 0.036-0.001 0.054l0-0.003v2.633zM9.216 29.37c-0.184 0.288-0.503 0.476-0.865 0.476-0.565 0-1.023-0.458-1.023-1.023 0-0.172 0.042-0.334 0.117-0.476l-0.003 0.006 1.318-2.281c0.17-0.344 0.518-0.576 0.92-0.576 0.565 0 1.023 0.458 1.023 1.023 0 0.211-0.064 0.406-0.173 0.569l0.002-0.004-1.318 2.279zM3.44 24.19c-0.147 0.087-0.324 0.138-0.513 0.138-0.566 0-1.024-0.459-1.024-1.024 0-0.377 0.204-0.706 0.507-0.884l0.005-0.003 2.273-1.323c0.149-0.089 0.329-0.141 0.521-0.141 0.569 0 1.031 0.461 1.031 1.031 0 0.377-0.203 0.707-0.505 0.887l-0.005 0.003-2.281 1.318zM1.042 16.815c-0.015 0.001-0.034 0.001-0.052 0.001-0.568 0-1.029-0.461-1.029-1.029s0.461-1.029 1.029-1.029c0.018 0 0.036 0 0.054 0.001l-0.002-0h2.62c0.015-0.001 0.034-0.001 0.052-0.001 0.568 0 1.029 0.461 1.029 1.029s-0.461 1.029-1.029 1.029c-0.018 0-0.036-0-0.054-0.001l0.002 0zM2.63 9.216c-0.338-0.172-0.565-0.517-0.565-0.915 0-0.565 0.458-1.023 1.023-1.023 0.207 0 0.4 0.062 0.561 0.168l-0.004-0.002 2.281 1.318c0.321 0.177 0.535 0.513 0.535 0.899 0 0.565-0.458 1.023-1.023 1.023-0.197 0-0.381-0.056-0.537-0.152l0.004 0.003-2.276-1.318z"></path>
</symbol>

<symbol id="icon-telegram" viewBox="0 0 32 32">
<path d="M16 0c-8.838 0-16 7.162-16 16s7.162 16 16 16 16-7.163 16-16-7.163-16-16-16zM23.863 10.969l-2.625 12.369c-0.181 0.881-0.712 1.087-1.45 0.681l-4-2.956-1.919 1.869c-0.225 0.219-0.4 0.4-0.8 0.4-0.519 0-0.431-0.194-0.606-0.688l-1.363-4.475-3.956-1.231c-0.856-0.262-0.862-0.85 0.194-1.269l15.412-5.95c0.7-0.319 1.381 0.169 1.113 1.25z"></path>
</symbol>

<symbol id="icon-github" viewBox="0 0 32 32">
<path d="M16 0.396c-8.84 0-16 7.164-16 16 0 7.071 4.584 13.067 10.94 15.18 0.8 0.151 1.093-0.344 1.093-0.769 0-0.38-0.013-1.387-0.020-2.72-4.451 0.965-5.389-2.147-5.389-2.147-0.728-1.847-1.78-2.34-1.78-2.34-1.449-0.992 0.112-0.972 0.112-0.972 1.607 0.112 2.451 1.648 2.451 1.648 1.427 2.447 3.745 1.74 4.66 1.331 0.144-1.035 0.556-1.74 1.013-2.14-3.553-0.4-7.288-1.776-7.288-7.907 0-1.747 0.62-3.173 1.647-4.293-0.18-0.404-0.72-2.031 0.14-4.235 0 0 1.34-0.429 4.4 1.64 1.28-0.356 2.64-0.532 4-0.54 1.36 0.008 2.72 0.184 4 0.54 3.040-2.069 4.38-1.64 4.38-1.64 0.86 2.204 0.32 3.831 0.16 4.235 1.020 1.12 1.64 2.547 1.64 4.293 0 6.147-3.74 7.5-7.3 7.893 0.56 0.48 1.080 1.461 1.080 2.96 0 2.141-0.020 3.861-0.020 4.381 0 0.42 0.28 0.92 1.1 0.76 6.401-2.099 10.981-8.099 10.981-15.159 0-8.836-7.164-16-16-16z"></path>
</symbol>

</defs>
</svg>